<svg width="51" height="51" viewBox="0 0 51 51" fill="none" xmlns="http://www.w3.org/2000/svg">
<circle cx="25.5" cy="25.5" r="20.5" fill="white"/>
<path fill-rule="evenodd" clip-rule="evenodd" d="M25.5 51C39.5833 51 51 39.5833 51 25.5C51 11.4167 39.5833 0 25.5 0C11.4167 0 0 11.4167 0 25.5C0 39.5833 11.4167 51 25.5 51ZM35.8071 36.6951C34.7307 36.6951 33.7195 36.4953 32.7736 36.0956C31.8277 35.6851 30.996 35.1288 30.2784 34.4267C29.5716 33.7138 29.0117 32.8874 28.5986 31.9476C28.1963 31.0078 27.9951 30.0032 27.9951 28.9338V23.7812H24.0506C24.082 24.0138 24.0977 24.2515 24.0977 24.4942C24.0977 25.2152 23.9591 25.8957 23.6818 26.5358C23.4046 27.1677 23.0254 27.7226 22.5443 28.2006C22.0713 28.6705 21.5168 29.0432 20.8808 29.3187C20.2447 29.5941 19.5638 29.7318 18.8381 29.7318H17.0767C16.8321 29.7318 16.6038 29.7764 16.3918 29.8655C16.1798 29.9546 15.9922 30.0802 15.8291 30.2422C15.6742 30.3962 15.5519 30.5784 15.4622 30.7891C15.3725 30.9997 15.3276 31.2266 15.3276 31.4696V33.2074H21.8768C22.8399 33.2074 23.6207 33.9882 23.6207 34.9513C23.6207 35.9144 22.8399 36.6951 21.8768 36.6951H15.8171C13.608 36.6951 11.8171 34.9043 11.8171 32.6951V31.4696C11.8171 30.7486 11.9558 30.0721 12.233 29.4402C12.5103 28.8002 12.8854 28.2452 13.3583 27.7753C13.8394 27.2973 14.398 26.9246 15.0341 26.6573C15.6701 26.3818 16.351 26.2441 17.0767 26.2441H18.8381C19.0827 26.2441 19.3111 26.1995 19.5231 26.1104C19.7351 26.0213 19.9186 25.8998 20.0735 25.7459C20.2366 25.5838 20.363 25.3975 20.4527 25.1869C20.5424 24.9681 20.5872 24.7372 20.5872 24.4942C20.5872 24.2511 20.5424 24.0243 20.4527 23.8136C20.363 23.603 20.2366 23.4207 20.0735 23.2668C19.9186 23.1047 19.7351 22.9792 19.5231 22.8901C19.3111 22.8009 19.0827 22.7564 18.8381 22.7564H14.3194C13.3563 22.7564 12.5755 21.9756 12.5755 21.0125C12.5755 20.0494 13.3563 19.2687 14.3194 19.2687H18.8381C18.9168 19.2687 18.995 19.2703 19.0727 19.2735H27.9951V14.657C27.9951 13.4321 28.9882 12.439 30.2131 12.439C31.4381 12.439 32.4311 13.4321 32.4311 14.657V19.2735H36.9291C38.1739 19.2735 39.183 20.2826 39.183 21.5274C39.183 22.7721 38.1739 23.7812 36.9291 23.7812H32.4311V28.9338C32.4311 29.3983 32.5181 29.8358 32.6921 30.2463C32.866 30.646 33.1052 30.997 33.4097 31.2995C33.7141 31.6019 34.0729 31.845 34.486 32.0286C34.8992 32.2015 35.3395 32.2879 35.8071 32.2879H36.9794C38.1964 32.2879 39.183 33.2745 39.183 34.4915C39.183 35.7085 38.1964 36.6951 36.9794 36.6951H35.8071Z" fill="#6366F1"/>
</svg>
