<svg width="168" height="24" viewBox="0 0 168 24" fill="none" xmlns="http://www.w3.org/2000/svg">
<path d="M21.2836 8.27581L15.3328 7.41096L12.6727 2.018C12.6 1.87034 12.4805 1.75081 12.3328 1.67815C11.9625 1.49534 11.5125 1.64768 11.3274 2.018L8.6672 7.41096L2.71641 8.27581C2.55235 8.29925 2.40235 8.37659 2.2875 8.49378C2.14866 8.63648 2.07216 8.82846 2.07479 9.02755C2.07743 9.22663 2.15899 9.41652 2.30156 9.55549L6.60704 13.7531L5.58985 19.6805C5.566 19.8184 5.58125 19.9602 5.63389 20.0898C5.68653 20.2195 5.77445 20.3318 5.88767 20.414C6.00089 20.4963 6.13488 20.5451 6.27446 20.5551C6.41404 20.565 6.55361 20.5357 6.67735 20.4703L12 17.6719L17.3227 20.4703C17.468 20.5477 17.6367 20.5735 17.7985 20.5453C18.2063 20.475 18.4805 20.0883 18.4102 19.6805L17.393 13.7531L21.6985 9.55549C21.8156 9.44065 21.893 9.29065 21.9164 9.12659C21.9797 8.71643 21.6938 8.33674 21.2836 8.27581V8.27581Z" fill="#F8B200"/>
<path d="M57.2836 8.27581L51.3328 7.41096L48.6727 2.018C48.6 1.87034 48.4805 1.75081 48.3328 1.67815C47.9625 1.49534 47.5125 1.64768 47.3274 2.018L44.6672 7.41096L38.7164 8.27581C38.5523 8.29925 38.4023 8.37659 38.2875 8.49378C38.1487 8.63648 38.0722 8.82846 38.0748 9.02755C38.0774 9.22663 38.159 9.41652 38.3016 9.55549L42.607 13.7531L41.5898 19.6805C41.566 19.8184 41.5813 19.9602 41.6339 20.0898C41.6865 20.2195 41.7744 20.3318 41.8877 20.414C42.0009 20.4963 42.1349 20.5451 42.2745 20.5551C42.414 20.565 42.5536 20.5357 42.6774 20.4703L48 17.6719L53.3227 20.4703C53.468 20.5477 53.6367 20.5735 53.7985 20.5453C54.2063 20.475 54.4805 20.0883 54.4102 19.6805L53.393 13.7531L57.6985 9.55549C57.8156 9.44065 57.893 9.29065 57.9164 9.12659C57.9797 8.71643 57.6938 8.33674 57.2836 8.27581V8.27581Z" fill="#F8B200"/>
<path d="M87.1086 7.52156L87.1668 7.63946L87.2969 7.65836L93.2469 8.52309C93.247 8.52311 93.2471 8.52313 93.2473 8.52315C93.523 8.56434 93.711 8.81835 93.6693 9.08847L93.6689 9.09123C93.6534 9.19979 93.6022 9.29972 93.5236 9.37683C93.5236 9.37687 93.5235 9.37691 93.5235 9.37694L89.2185 13.5741L89.1244 13.6659L89.1466 13.7954L90.1638 19.7228L90.1638 19.723C90.2106 19.9941 90.0283 20.252 89.756 20.299L89.7556 20.299C89.6475 20.3178 89.5353 20.3003 89.4401 20.2496L89.439 20.2491L84.1164 17.4506L84 17.3895L83.8837 17.4506L78.561 20.2491L78.5606 20.2493C78.4782 20.2928 78.3852 20.3123 78.2922 20.3057C78.1993 20.2991 78.11 20.2665 78.0346 20.2118C77.9592 20.157 77.9006 20.0822 77.8655 19.9958C77.8305 19.9094 77.8203 19.815 77.8362 19.7231L77.8362 19.7228L78.8534 13.7954L78.8757 13.6659L78.7816 13.5741L74.4761 9.37649L74.4761 9.37648C74.3809 9.28375 74.3265 9.15706 74.3248 9.02424C74.323 8.89157 74.3739 8.76362 74.4664 8.66845C74.5434 8.58993 74.6433 8.53879 74.7518 8.5233L74.7524 8.52321L80.7032 7.65836L80.8332 7.63946L80.8914 7.52156L83.551 2.1298C83.5511 2.12962 83.5511 2.12944 83.5512 2.12926C83.6754 1.88163 83.9761 1.78087 84.2222 1.90232L84.2224 1.90247C84.3206 1.95076 84.4001 2.03023 84.4484 2.12837L84.4485 2.12859L87.1086 7.52156Z" stroke="#F8B200" stroke-width="0.5"/>
<path d="M123.109 7.52156L123.167 7.63946L123.297 7.65836L129.247 8.52309C129.247 8.52311 129.247 8.52313 129.247 8.52315C129.523 8.56434 129.711 8.81835 129.669 9.08847L129.669 9.09123C129.653 9.19979 129.602 9.29972 129.524 9.37683C129.524 9.37687 129.524 9.37691 129.523 9.37694L125.218 13.5741L125.124 13.6659L125.147 13.7954L126.164 19.7228L126.164 19.723C126.211 19.9941 126.028 20.252 125.756 20.299L125.756 20.299C125.648 20.3178 125.535 20.3003 125.44 20.2496L125.439 20.2491L120.116 17.4506L120 17.3895L119.884 17.4506L114.561 20.2491L114.561 20.2493C114.478 20.2928 114.385 20.3123 114.292 20.3057C114.199 20.2991 114.11 20.2665 114.035 20.2118C113.959 20.157 113.901 20.0822 113.866 19.9958C113.83 19.9094 113.82 19.815 113.836 19.7231L113.836 19.7228L114.853 13.7954L114.876 13.6659L114.782 13.5741L110.476 9.37649L110.476 9.37648C110.381 9.28375 110.327 9.15706 110.325 9.02424C110.323 8.89157 110.374 8.76362 110.466 8.66845C110.543 8.58993 110.643 8.53879 110.752 8.5233L110.752 8.52321L116.703 7.65836L116.833 7.63946L116.891 7.52156L119.551 2.1298C119.551 2.12962 119.551 2.12944 119.551 2.12926C119.675 1.88163 119.976 1.78087 120.222 1.90232L120.222 1.90247C120.321 1.95076 120.4 2.03023 120.448 2.12837L120.448 2.12859L123.109 7.52156Z" stroke="#F8B200" stroke-width="0.5"/>
<path d="M159.109 7.52156L159.167 7.63946L159.297 7.65836L165.247 8.52309C165.247 8.52311 165.247 8.52313 165.247 8.52315C165.523 8.56434 165.711 8.81835 165.669 9.08847L165.669 9.09123C165.653 9.19979 165.602 9.29972 165.524 9.37683C165.524 9.37687 165.524 9.37691 165.523 9.37694L161.218 13.5741L161.124 13.6659L161.147 13.7954L162.164 19.7228L162.164 19.723C162.211 19.9941 162.028 20.252 161.756 20.299L161.756 20.299C161.648 20.3178 161.535 20.3003 161.44 20.2496L161.439 20.2491L156.116 17.4506L156 17.3895L155.884 17.4506L150.561 20.2491L150.561 20.2493C150.478 20.2928 150.385 20.3123 150.292 20.3057C150.199 20.2991 150.11 20.2665 150.035 20.2118C149.959 20.157 149.901 20.0822 149.866 19.9958C149.83 19.9094 149.82 19.815 149.836 19.7231L149.836 19.7228L150.853 13.7954L150.876 13.6659L150.782 13.5741L146.476 9.37649L146.476 9.37648C146.381 9.28375 146.327 9.15706 146.325 9.02424C146.323 8.89157 146.374 8.76362 146.466 8.66845C146.543 8.58993 146.643 8.53879 146.752 8.5233L146.752 8.52321L152.703 7.65836L152.833 7.63946L152.891 7.52156L155.551 2.1298C155.551 2.12962 155.551 2.12944 155.551 2.12926C155.675 1.88163 155.976 1.78087 156.222 1.90232L156.222 1.90247C156.321 1.95076 156.4 2.03023 156.448 2.12837L156.448 2.12859L159.109 7.52156Z" stroke="#F8B200" stroke-width="0.5"/>
</svg>
