<svg width="168" height="24" viewBox="0 0 168 24" fill="none" xmlns="http://www.w3.org/2000/svg">
<path d="M21.2836 8.27581L15.3328 7.41096L12.6727 2.018C12.6 1.87034 12.4805 1.75081 12.3328 1.67815C11.9625 1.49534 11.5125 1.64768 11.3274 2.018L8.6672 7.41096L2.71641 8.27581C2.55235 8.29925 2.40235 8.37659 2.2875 8.49378C2.14866 8.63648 2.07216 8.82846 2.07479 9.02755C2.07743 9.22663 2.15899 9.41652 2.30156 9.55549L6.60704 13.7531L5.58985 19.6805C5.566 19.8184 5.58125 19.9602 5.63389 20.0898C5.68653 20.2195 5.77445 20.3318 5.88767 20.414C6.00089 20.4963 6.13488 20.5451 6.27446 20.5551C6.41404 20.565 6.55361 20.5357 6.67735 20.4703L12 17.6719L17.3227 20.4703C17.468 20.5477 17.6367 20.5735 17.7985 20.5453C18.2063 20.475 18.4805 20.0883 18.4102 19.6805L17.393 13.7531L21.6985 9.55549C21.8156 9.44065 21.893 9.29065 21.9164 9.12659C21.9797 8.71643 21.6938 8.33674 21.2836 8.27581V8.27581Z" fill="#F8B200"/>
<path d="M57.2836 8.27581L51.3328 7.41096L48.6727 2.018C48.6 1.87034 48.4805 1.75081 48.3328 1.67815C47.9625 1.49534 47.5125 1.64768 47.3274 2.018L44.6672 7.41096L38.7164 8.27581C38.5523 8.29925 38.4023 8.37659 38.2875 8.49378C38.1487 8.63648 38.0722 8.82846 38.0748 9.02755C38.0774 9.22663 38.159 9.41652 38.3016 9.55549L42.607 13.7531L41.5898 19.6805C41.566 19.8184 41.5813 19.9602 41.6339 20.0898C41.6865 20.2195 41.7744 20.3318 41.8877 20.414C42.0009 20.4963 42.1349 20.5451 42.2745 20.5551C42.414 20.565 42.5536 20.5357 42.6774 20.4703L48 17.6719L53.3227 20.4703C53.468 20.5477 53.6367 20.5735 53.7985 20.5453C54.2063 20.475 54.4805 20.0883 54.4102 19.6805L53.393 13.7531L57.6985 9.55549C57.8156 9.44065 57.893 9.29065 57.9164 9.12659C57.9797 8.71643 57.6938 8.33674 57.2836 8.27581V8.27581Z" fill="#F8B200"/>
<path d="M93.2836 8.27581L87.3328 7.41096L84.6727 2.018C84.6 1.87034 84.4805 1.75081 84.3328 1.67815C83.9625 1.49534 83.5125 1.64768 83.3274 2.018L80.6672 7.41096L74.7164 8.27581C74.5523 8.29925 74.4023 8.37659 74.2875 8.49378C74.1487 8.63648 74.0722 8.82846 74.0748 9.02755C74.0774 9.22663 74.159 9.41652 74.3016 9.55549L78.607 13.7531L77.5898 19.6805C77.566 19.8184 77.5813 19.9602 77.6339 20.0898C77.6865 20.2195 77.7744 20.3318 77.8877 20.414C78.0009 20.4963 78.1349 20.5451 78.2745 20.5551C78.414 20.565 78.5536 20.5357 78.6774 20.4703L84 17.6719L89.3227 20.4703C89.468 20.5477 89.6367 20.5735 89.7985 20.5453C90.2063 20.475 90.4805 20.0883 90.4102 19.6805L89.393 13.7531L93.6985 9.55549C93.8156 9.44065 93.893 9.29065 93.9164 9.12659C93.9797 8.71643 93.6938 8.33674 93.2836 8.27581V8.27581Z" fill="#F8B200"/>
<path d="M129.284 8.27581L123.333 7.41096L120.673 2.018C120.6 1.87034 120.48 1.75081 120.333 1.67815C119.963 1.49534 119.513 1.64768 119.327 2.018L116.667 7.41096L110.716 8.27581C110.552 8.29925 110.402 8.37659 110.287 8.49378C110.149 8.63648 110.072 8.82846 110.075 9.02755C110.077 9.22663 110.159 9.41652 110.302 9.55549L114.607 13.7531L113.59 19.6805C113.566 19.8184 113.581 19.9602 113.634 20.0898C113.687 20.2195 113.774 20.3318 113.888 20.414C114.001 20.4963 114.135 20.5451 114.274 20.5551C114.414 20.565 114.554 20.5357 114.677 20.4703L120 17.6719L125.323 20.4703C125.468 20.5477 125.637 20.5735 125.798 20.5453C126.206 20.475 126.48 20.0883 126.41 19.6805L125.393 13.7531L129.698 9.55549C129.816 9.44065 129.893 9.29065 129.916 9.12659C129.98 8.71643 129.694 8.33674 129.284 8.27581V8.27581Z" fill="#F8B200"/>
<path d="M159.109 7.52156L159.167 7.63946L159.297 7.65836L165.247 8.52309C165.247 8.52311 165.247 8.52313 165.247 8.52315C165.523 8.56434 165.711 8.81835 165.669 9.08847L165.669 9.09123C165.653 9.19979 165.602 9.29972 165.524 9.37683C165.524 9.37687 165.524 9.37691 165.523 9.37694L161.218 13.5741L161.124 13.6659L161.147 13.7954L162.164 19.7228L162.164 19.723C162.211 19.9941 162.028 20.252 161.756 20.299L161.756 20.299C161.648 20.3178 161.535 20.3003 161.44 20.2496L161.439 20.2491L156.116 17.4506L156 17.3895L155.884 17.4506L150.561 20.2491L150.561 20.2493C150.478 20.2928 150.385 20.3123 150.292 20.3057C150.199 20.2991 150.11 20.2665 150.035 20.2118C149.959 20.157 149.901 20.0822 149.866 19.9958C149.83 19.9094 149.82 19.815 149.836 19.7231L149.836 19.7228L150.853 13.7954L150.876 13.6659L150.782 13.5741L146.476 9.37649L146.476 9.37648C146.381 9.28375 146.327 9.15706 146.325 9.02424C146.323 8.89157 146.374 8.76362 146.466 8.66845C146.543 8.58993 146.643 8.53879 146.752 8.5233L146.752 8.52321L152.703 7.65836L152.833 7.63946L152.891 7.52156L155.551 2.1298C155.551 2.12962 155.551 2.12944 155.551 2.12926C155.675 1.88163 155.976 1.78087 156.222 1.90232L156.222 1.90247C156.321 1.95076 156.4 2.03023 156.448 2.12837L156.448 2.12859L159.109 7.52156Z" stroke="#F8B200" stroke-width="0.5"/>
</svg>
