<svg width="168" height="24" viewBox="0 0 168 24" fill="none" xmlns="http://www.w3.org/2000/svg">
<path d="M21.2836 8.27581L15.3328 7.41096L12.6727 2.018C12.6 1.87034 12.4805 1.75081 12.3328 1.67815C11.9625 1.49534 11.5125 1.64768 11.3274 2.018L8.6672 7.41096L2.71641 8.27581C2.55235 8.29925 2.40235 8.37659 2.2875 8.49378C2.14866 8.63648 2.07216 8.82846 2.07479 9.02755C2.07743 9.22663 2.15899 9.41652 2.30156 9.55549L6.60704 13.7531L5.58985 19.6805C5.566 19.8184 5.58125 19.9602 5.63389 20.0898C5.68653 20.2195 5.77445 20.3318 5.88767 20.414C6.00089 20.4963 6.13488 20.5451 6.27446 20.5551C6.41404 20.565 6.55361 20.5357 6.67735 20.4703L12 17.6719L17.3227 20.4703C17.468 20.5477 17.6367 20.5735 17.7985 20.5453C18.2063 20.475 18.4805 20.0883 18.4102 19.6805L17.393 13.7531L21.6985 9.55549C21.8156 9.44065 21.893 9.29065 21.9164 9.12659C21.9797 8.71643 21.6938 8.33674 21.2836 8.27581V8.27581Z" fill="#F8B200"/>
<path d="M57.2836 8.27581L51.3328 7.41096L48.6727 2.018C48.6 1.87034 48.4805 1.75081 48.3328 1.67815C47.9625 1.49534 47.5125 1.64768 47.3274 2.018L44.6672 7.41096L38.7164 8.27581C38.5523 8.29925 38.4023 8.37659 38.2875 8.49378C38.1487 8.63648 38.0722 8.82846 38.0748 9.02755C38.0774 9.22663 38.159 9.41652 38.3016 9.55549L42.607 13.7531L41.5898 19.6805C41.566 19.8184 41.5813 19.9602 41.6339 20.0898C41.6865 20.2195 41.7744 20.3318 41.8877 20.414C42.0009 20.4963 42.1349 20.5451 42.2745 20.5551C42.414 20.565 42.5536 20.5357 42.6773 20.4703L48 17.6719L53.3227 20.4703C53.468 20.5477 53.6367 20.5735 53.7985 20.5453C54.2063 20.475 54.4805 20.0883 54.4102 19.6805L53.393 13.7531L57.6985 9.55549C57.8156 9.44065 57.893 9.29065 57.9164 9.12659C57.9797 8.71643 57.6938 8.33674 57.2836 8.27581V8.27581Z" fill="#F8B200"/>
<path d="M93.2836 8.27581L87.3328 7.41096L84.6727 2.018C84.6 1.87034 84.4805 1.75081 84.3328 1.67815C83.9625 1.49534 83.5125 1.64768 83.3274 2.018L80.6672 7.41096L74.7164 8.27581C74.5523 8.29925 74.4023 8.37659 74.2875 8.49378C74.1487 8.63648 74.0722 8.82846 74.0748 9.02755C74.0774 9.22663 74.159 9.41652 74.3016 9.55549L78.607 13.7531L77.5898 19.6805C77.566 19.8184 77.5813 19.9602 77.6339 20.0898C77.6865 20.2195 77.7744 20.3318 77.8877 20.414C78.0009 20.4963 78.1349 20.5451 78.2745 20.5551C78.414 20.565 78.5536 20.5357 78.6774 20.4703L84 17.6719L89.3227 20.4703C89.468 20.5477 89.6367 20.5735 89.7985 20.5453C90.2063 20.475 90.4805 20.0883 90.4102 19.6805L89.393 13.7531L93.6985 9.55549C93.8156 9.44065 93.893 9.29065 93.9164 9.12659C93.9797 8.71643 93.6938 8.33674 93.2836 8.27581V8.27581Z" fill="#F8B200"/>
<path d="M129.284 8.27581L123.333 7.41096L120.673 2.018C120.6 1.87034 120.48 1.75081 120.333 1.67815C119.963 1.49534 119.513 1.64768 119.327 2.018L116.667 7.41096L110.716 8.27581C110.552 8.29925 110.402 8.37659 110.287 8.49378C110.149 8.63648 110.072 8.82846 110.075 9.02755C110.077 9.22663 110.159 9.41652 110.302 9.55549L114.607 13.7531L113.59 19.6805C113.566 19.8184 113.581 19.9602 113.634 20.0898C113.687 20.2195 113.774 20.3318 113.888 20.414C114.001 20.4963 114.135 20.5451 114.274 20.5551C114.414 20.565 114.554 20.5357 114.677 20.4703L120 17.6719L125.323 20.4703C125.468 20.5477 125.637 20.5735 125.798 20.5453C126.206 20.475 126.48 20.0883 126.41 19.6805L125.393 13.7531L129.698 9.55549C129.816 9.44065 129.893 9.29065 129.916 9.12659C129.98 8.71643 129.694 8.33674 129.284 8.27581V8.27581Z" fill="#F8B200"/>
<path d="M165.284 8.27581L159.333 7.41096L156.673 2.018C156.6 1.87034 156.48 1.75081 156.333 1.67815C155.963 1.49534 155.513 1.64768 155.327 2.018L152.667 7.41096L146.716 8.27581C146.552 8.29925 146.402 8.37659 146.287 8.49378C146.149 8.63648 146.072 8.82846 146.075 9.02755C146.077 9.22663 146.159 9.41652 146.302 9.55549L150.607 13.7531L149.59 19.6805C149.566 19.8184 149.581 19.9602 149.634 20.0898C149.687 20.2195 149.774 20.3318 149.888 20.414C150.001 20.4963 150.135 20.5451 150.274 20.5551C150.414 20.565 150.554 20.5357 150.677 20.4703L156 17.6719L161.323 20.4703C161.468 20.5477 161.637 20.5735 161.798 20.5453C162.206 20.475 162.48 20.0883 162.41 19.6805L161.393 13.7531L165.698 9.55549C165.816 9.44065 165.893 9.29065 165.916 9.12659C165.98 8.71643 165.694 8.33674 165.284 8.27581V8.27581Z" fill="#F8B200"/>
</svg>
