<svg width="61" height="61" viewBox="0 0 61 61" fill="none" xmlns="http://www.w3.org/2000/svg">
<rect x="3.8125" y="3.8125" width="53.375" height="53.375" fill="#FF26BE"/>
<rect x="5.71875" y="5.71875" width="49.5625" height="49.5625" fill="#2E001F"/>
<path d="M31.5916 43.4751L25.0982 30.4946L31.2997 17.5001C31.4165 17.3036 31.3464 17.1562 31.1595 17.1562H27.3974C27.1722 17.1562 27.0762 17.3085 26.9768 17.4756L22.6774 27.3013L18.2611 17.451C18.1676 17.2299 18.0742 17.1808 17.8405 17.1808H13.8214C13.6812 17.1808 13.541 17.3282 13.6812 17.5247L19.8734 30.4946L13.4124 43.4997C13.2955 43.6471 13.3189 43.8436 13.5526 43.8436H17.4081C17.595 43.8436 17.7118 43.7699 17.8287 43.5734L22.3736 33.3932L26.8949 43.5488C27.0117 43.7944 27.1286 43.8436 27.3856 43.8436H31.4514C31.6383 43.8436 31.7084 43.6716 31.5916 43.4751Z" fill="#FF26BE"/>
<path fill-rule="evenodd" clip-rule="evenodd" d="M42.1651 23.8863C36.4169 23.8863 32.7951 28.357 32.7951 34.0804C32.7951 40.7619 36.3716 43.8682 41.4422 43.8436C43.405 43.8436 45.5065 43.5868 47.4693 42.6042C47.6095 42.5306 47.6562 42.4814 47.6562 42.334C47.5394 41.4252 47.5394 40.59 47.5394 39.9267V17.3767C47.5394 17.2539 47.4927 17.1802 47.3058 17.1802H43.6138C43.497 17.1802 43.3802 17.2785 43.3802 17.4259V23.9354C42.9128 23.8863 42.6558 23.8863 42.1651 23.8863ZM42.0249 27.5463C42.5857 27.5463 43.053 27.6446 43.3802 27.792V39.9513C42.9362 40.1478 42.3287 40.2215 41.7679 40.2215C39.1274 40.2215 37.0244 38.4038 37.0244 33.8839C37.0244 29.9291 39.0807 27.5463 42.0249 27.5463Z" fill="#FF26BE"/>
</svg>
