<svg width="61" height="61" viewBox="0 0 61 61" fill="none" xmlns="http://www.w3.org/2000/svg">
<rect x="3.8125" y="3.8125" width="53.375" height="53.375" fill="#32CAFA"/>
<rect x="5.71875" y="5.71875" width="49.5625" height="49.5625" fill="#021D25"/>
<path d="M15.25 17.5552C15.25 17.3967 15.592 17.2751 15.7898 17.2751C17.3442 17.1959 19.6249 17.1562 22.0187 17.1562C28.7139 17.1562 31.3224 20.8285 31.3224 25.5334C31.3224 31.6783 26.8712 34.3123 21.411 34.3123C20.4954 34.3123 20.176 34.2727 19.5373 34.2727V43.5637C19.5373 43.7645 19.4582 43.8438 19.2575 43.8438H15.5298C15.3291 43.8438 15.25 43.7645 15.25 43.5637V17.5552ZM19.5373 30.4024C20.0941 30.442 20.5349 30.442 21.4902 30.442C24.3192 30.442 26.9786 29.4433 26.9786 25.6154C26.9786 22.543 25.0794 20.9869 21.8491 20.9869C20.8939 20.9869 19.9754 21.0265 19.5373 21.0662V30.4024ZM40.3294 27.528C38.4161 27.528 37.7774 28.4871 37.7774 29.2849C37.7774 30.1619 38.2154 30.7617 40.7675 32.0773C44.5545 33.9134 45.75 35.6675 45.75 38.2618C45.75 42.1321 42.7995 43.8438 38.8146 43.8438C36.7034 43.8438 34.9032 43.4164 33.8688 42.8167C33.7105 42.7374 33.6681 42.6186 33.6681 42.4177V39.2181C33.6681 38.9776 33.7868 38.8984 33.9479 39.0172C35.4628 40.0159 37.2206 40.4544 38.8146 40.4544C40.7279 40.4544 41.5249 39.6566 41.5249 38.5787C41.5249 37.7016 40.9681 36.9434 38.5348 35.6675C35.1067 34.0322 33.671 32.3545 33.671 29.5621C33.671 26.4501 36.1015 24.104 40.3266 24.104C42.3982 24.104 43.8621 24.1754 44.6591 24.5347C44.8598 24.6535 44.8993 24.8544 44.8993 25.0128V28.3258C44.8993 28.5238 44.7806 28.6455 44.5404 28.5663C43.7718 28.1099 42.2427 27.528 40.3294 27.528Z" fill="#32CAFA"/>
</svg>
