<svg width="61" height="61" viewBox="0 0 61 61" fill="none" xmlns="http://www.w3.org/2000/svg">
<rect x="3.8125" y="3.8125" width="53.375" height="53.375" fill="#FB7C33"/>
<rect x="5.71875" y="5.71875" width="49.5625" height="49.5625" fill="#261302"/>
<path d="M22.818 36.5249L21.0333 43.6035C20.9964 43.7968 20.9226 43.8437 20.6985 43.8437H17.3902C17.1687 43.8437 17.1318 43.7664 17.1687 43.493L23.564 20.0175C23.6747 19.5894 23.7511 19.2193 23.788 18.0511C23.788 17.8964 23.8619 17.8163 23.9752 17.8163H28.6965C28.8442 17.8163 28.9206 17.855 28.9575 18.0511L36.1331 43.5317C36.17 43.725 36.1331 43.8437 35.9459 43.8437H32.2289C32.0444 43.8437 31.9311 43.7968 31.8942 43.6421L30.0357 36.5249H22.818ZM29.0999 32.6887L26.4242 21.5945L23.7854 32.6887H29.0999ZM39.2358 19.5701C39.2358 18.0511 40.2402 17.1562 41.5398 17.1562C42.9158 17.1562 43.8438 18.1312 43.8438 19.5701C43.8438 21.1278 42.8763 21.9839 41.5029 21.9839C40.1637 21.9839 39.2358 21.1278 39.2358 19.5701ZM39.4889 24.9363C39.4889 24.7402 39.5627 24.6629 39.7498 24.6629H43.2849C43.4721 24.6629 43.5459 24.7402 43.5459 24.9363V43.5703C43.5459 43.7664 43.509 43.8437 43.2849 43.8437H39.7867C39.5627 43.8437 39.4889 43.7278 39.4889 43.5317V24.9363Z" fill="#FB7C33"/>
</svg>
