<svg width="61" height="61" viewBox="0 0 61 61" fill="none" xmlns="http://www.w3.org/2000/svg">
<path fill-rule="evenodd" clip-rule="evenodd" d="M30.5 30.5C30.5 25.7624 34.3406 21.9219 39.0781 21.9219C43.8157 21.9219 47.6562 25.7624 47.6562 30.5C47.6562 35.2376 43.8157 39.0781 39.0781 39.0781C34.3406 39.0781 30.5 35.2376 30.5 30.5Z" fill="#1ABCFE"/>
<path fill-rule="evenodd" clip-rule="evenodd" d="M13.3438 47.6563C13.3438 42.9187 17.1843 39.0781 21.9219 39.0781H30.5V47.6563C30.5 52.3938 26.6594 56.2344 21.9219 56.2344C17.1843 56.2344 13.3438 52.3938 13.3438 47.6563Z" fill="#0ACF83"/>
<path fill-rule="evenodd" clip-rule="evenodd" d="M30.5 4.76562V21.9219H39.0781C43.8157 21.9219 47.6562 18.0813 47.6562 13.3437C47.6562 8.60618 43.8157 4.76562 39.0781 4.76562H30.5Z" fill="#FF7262"/>
<path fill-rule="evenodd" clip-rule="evenodd" d="M13.3438 13.3438C13.3438 18.0813 17.1843 21.9219 21.9219 21.9219H30.5V4.76562H21.9219C17.1843 4.76562 13.3438 8.60618 13.3438 13.3438Z" fill="#F24E1E"/>
<path fill-rule="evenodd" clip-rule="evenodd" d="M13.3438 30.5C13.3438 35.2376 17.1843 39.0781 21.9219 39.0781H30.5V21.9219H21.9219C17.1843 21.9219 13.3438 25.7624 13.3438 30.5Z" fill="#A259FF"/>
</svg>
